<?xml version="1.0" encoding="iso-8859-1"?>
<!-- Uploaded to: SVG Repo, www.svgrepo.com, Generator: SVG Repo Mixer Tools -->
<!DOCTYPE svg PUBLIC "-//W3C//DTD SVG 1.1//EN" "http://www.w3.org/Graphics/SVG/1.1/DTD/svg11.dtd">
<svg fill="#000000" height="800px" width="800px" version="1.1" id="Capa_1" xmlns="http://www.w3.org/2000/svg" xmlns:xlink="http://www.w3.org/1999/xlink" 
	 viewBox="0 0 51.386 51.386" xml:space="preserve">
<g>
	<path d="M12.075,36.533c-1.825-0.414-3.846,0.029-5.355,1.018c-0.224-0.061-0.476-0.041-0.734,0.117
		c-2.442,1.512-3.418,3.939-3.104,6.445c-0.026,0.355-0.026,0.734,0.015,1.145c0.17,1.693,1.201,3.016,2.596,3.912
		c0.964,0.93,2.129,1.709,3.223,2.004c2.414,0.656,4.266-0.32,6.369-1.418c0.204-0.107,0.318-0.256,0.396-0.414
		c0.986-0.631,1.827-1.535,2.385-2.731C19.894,42.254,16.314,37.494,12.075,36.533z"/>
	<path d="M17.934,19.438C13.456,17.514,7.84,16.477,3.229,18.5c-2.423,1.064-0.813,6.371-0.852,8.289
		c-0.017,0.855,0.846,1.115,1.444,0.832c0.153,0.256,0.417,0.439,0.82,0.404C16.249,27,25.061,32.402,28.292,43.805
		c0.052,0.186,0.145,0.318,0.253,0.426c2.443-1.42,4.97-2.729,7.534-3.977c-0.314-0.881-0.551-1.791-0.702-2.723
		C32.616,28.924,26.524,23.129,17.934,19.438z M4.932,23c-0.062,0.096-0.118,0.201-0.147,0.336c-0.159,0.732-0.37,1.578-0.282,2.328
		c0.015,0.129,0.05,0.252,0.098,0.365c-0.084,0.01-0.151,0.041-0.226,0.066c-0.072-3.025-0.911-5.27,1.552-6.238
		C5.387,20.789,5.117,21.914,4.932,23z M8.344,22.352c-0.229,1.225-0.771,2.346-0.936,3.574c-0.313,0-0.619-0.012-0.936-0.002
		c0.026-0.092,0.041-0.189,0.029-0.289c-0.013-0.104-0.01-0.209-0.009-0.313c0.079-0.111,0.141-0.246,0.164-0.422
		c0.197-1.475,0.345-3.606,1.5-4.68c0.279-0.26,0.334-0.561,0.272-0.836c0.197-0.012,0.397,0.004,0.595,0.002
		C8.72,20.354,8.535,21.338,8.344,22.352z M10.887,22.344c-0.196,0.379-0.454,0.705-0.742,1.006c0.049-0.164,0.102-0.33,0.136-0.494
		c0.232-1.127,0.373-2.268,0.801-3.342c0.318,0.041,0.637,0.082,0.954,0.142C11.668,20.559,11.336,21.477,10.887,22.344z
		 M14.377,20.352c0.003,2.119-0.631,4.162-0.788,6.268c-0.429-0.1-0.86-0.195-1.301-0.273c0.045-0.08,0.095-0.154,0.119-0.258
		c0.475-2.012,1.529-3.832,1.862-5.859c0.042,0.012,0.082,0.029,0.124,0.041C14.392,20.301,14.377,20.32,14.377,20.352z
		 M15.704,25.52c0.21-1.519,0.567-3.018,0.651-4.557c0.187,0.074,0.363,0.16,0.548,0.236c-0.079,0.133-0.138,0.283-0.15,0.465
		C16.662,23,16.122,24.25,15.704,25.52z M17.928,28.09c-0.344-0.156-0.691-0.307-1.045-0.447c0.214-0.111,0.388-0.309,0.462-0.617
		c0.417-1.711,1.17-3.291,1.368-5.047c0.144,0.066,0.281,0.137,0.424,0.203c-0.176,0.117-0.312,0.303-0.352,0.592
		c-0.232,1.67-0.798,3.264-0.907,4.953C17.869,27.865,17.894,27.983,17.928,28.09z M19.909,29.154
		c-0.291-0.172-0.572-0.361-0.873-0.519c0.422-0.088,0.807-0.393,0.842-0.938c0.097-1.502,0.637-2.934,0.843-4.422
		c0.017-0.115-0.002-0.219-0.018-0.32c0.152,0.076,0.31,0.154,0.459,0.232c0.086,0.045,0.167,0.096,0.252,0.141
		c0,0.004-0.002,0.004-0.003,0.008c-0.459,1.887-1.109,3.721-1.5,5.625C19.895,29.031,19.911,29.09,19.909,29.154z M21.83,30.455
		c-0.153-0.115-0.299-0.242-0.455-0.354c0.224-0.107,0.404-0.313,0.471-0.639c0.354-1.719,0.912-3.383,1.356-5.078
		c0.249,0.162,0.471,0.344,0.712,0.512c-0.085,0.082-0.162,0.185-0.219,0.324C22.98,26.961,22.162,28.623,21.83,30.455z
		 M23.578,31.932c0.062-0.121,0.102-0.262,0.112-0.422c0.117-1.893,1.039-3.582,1.746-5.307c0.021-0.051,0.017-0.098,0.029-0.148
		c0.321,0.264,0.617,0.547,0.921,0.824c-0.055,0.045-0.113,0.074-0.164,0.137c-1.194,1.498-1.993,3.254-2.456,5.105
		C23.702,32.061,23.642,31.992,23.578,31.932z M25.368,33.846c0.039-0.08,0.084-0.154,0.102-0.258
		c0.336-1.85,1.004-3.697,2.188-5.18c0.047-0.059,0.062-0.121,0.095-0.182c0.185,0.197,0.356,0.406,0.534,0.609
		c-0.056,0.057-0.108,0.121-0.155,0.197c-1.032,1.674-1.853,3.48-2.329,5.391C25.655,34.235,25.52,34.029,25.368,33.846z
		 M27.985,34.027c0.402-1.24,0.961-2.416,1.624-3.549c0.104,0.141,0.188,0.295,0.288,0.438c-0.32,0.068-0.613,0.269-0.737,0.67
		C28.866,32.537,28.451,33.283,27.985,34.027z M29.056,36.899c-0.227-0.686,0.036-0.813,0.461-1.361
		c0.671-0.867,1.096-1.963,1.438-3.018c0.073,0.123,0.135,0.254,0.206,0.377c-0.21,0.113-0.376,0.314-0.439,0.627
		c-0.286,1.424-0.916,2.693-1.555,3.967C29.151,37.295,29.123,37.098,29.056,36.899z M32.069,36.908
		c-0.505,0.896-1.011,1.99-1.751,2.775c0.054-0.111,0.106-0.223,0.16-0.336c0.318-0.664,0.667-1.316,0.993-1.977
		c0.345-0.697,0.637-1.412,0.869-2.148c0.178,0.395,0.353,0.791,0.513,1.197C32.538,36.453,32.232,36.619,32.069,36.908z"/>
	<path d="M50.707,33.461c-0.063-0.027-0.122-0.059-0.19-0.07c-0.139-0.629-0.306-1.258-0.488-1.887
		c-0.129-0.223-0.19-0.441-0.203-0.65c-2.507-7.961-8.366-15.67-14.477-20.99c-0.099-0.514-0.573-0.883-1.041-0.885
		c-0.328-0.269-0.656-0.541-0.984-0.797c-4.267-3.32-9.929-4.551-14.945-6.25C12.911,0.078,6.942-0.801,1.347,0.94
		C0.678,1.149,0.55,1.805,0.76,2.305C0.683,2.442,0.628,2.598,0.627,2.789C0.62,4.652,0.568,6.486,1.042,8.305
		C1.161,8.76,1.493,8.969,1.85,8.998C2.011,9.156,2.228,9.27,2.517,9.276c14.856,0.227,28.847,5.572,35.974,19.242
		c1.067,2.047,1.476,7.041,3.33,9.066c2.966-1.311,5.96-2.555,8.943-3.771C50.745,33.697,50.724,33.58,50.707,33.461z M4.923,7.361
		C4.884,7.36,4.845,7.358,4.806,7.356C4.75,7.236,4.663,7.119,4.532,7.016C4.079,6.654,4.363,5.422,4.449,4.879
		C4.585,4.018,4.824,3.178,4.97,2.318c0.005-0.029-0.005-0.055-0.002-0.082c0.227-0.031,0.46-0.043,0.689-0.066
		C5.595,3.906,5.041,5.594,4.919,7.332C4.918,7.344,4.924,7.352,4.923,7.361z M7.623,7.559C7.372,7.537,7.118,7.51,6.868,7.488
		c0.017-0.063,0.047-0.115,0.052-0.188c0.123-1.772,0.695-3.469,0.741-5.248c0.188-0.004,0.381,0.006,0.57,0.006
		C7.993,3.889,7.742,5.717,7.623,7.559z M10.055,7.832c-0.15-0.019-0.301-0.043-0.45-0.06c0.11-1.885,0.377-3.75,0.615-5.621
		c0.001-0.004-0.002-0.01-0.001-0.014c0.276,0.02,0.555,0.051,0.832,0.078c-0.617,1.73-0.796,3.514-1.017,5.35
		C10.023,7.662,10.043,7.744,10.055,7.832z M12.532,8.207c-0.191-0.031-0.384-0.068-0.575-0.1c0.003-0.016,0.012-0.023,0.014-0.039
		c0.224-1.855,0.327-3.771,1.07-5.51c0.014-0.031,0.009-0.061,0.019-0.092c0.194,0.029,0.391,0.076,0.585,0.109
		C13.444,4.483,12.874,6.324,12.532,8.207z M16.202,3.149c-0.429,1.848-0.695,3.723-0.975,5.598
		c-0.247-0.055-0.491-0.121-0.739-0.172c0.34-1.881,0.855-3.727,1.1-5.627c0.212,0.047,0.423,0.105,0.635,0.156
		C16.217,3.121,16.206,3.131,16.202,3.149z M18.414,9.553c-0.414-0.119-0.825-0.248-1.243-0.355
		c0.276-1.857,0.543-3.715,0.967-5.547c0.005-0.02-0.002-0.035,0.002-0.055c0.52,0.145,1.035,0.301,1.549,0.463
		C19.386,5.918,18.97,7.754,18.414,9.553z M22.252,5.332c-0.044,1.758-0.583,3.443-1.057,5.123c-0.291-0.104-0.58-0.215-0.874-0.313
		c0.557-1.783,0.975-3.605,1.278-5.449c0.249,0.088,0.487,0.188,0.734,0.279C22.291,5.08,22.256,5.195,22.252,5.332z M23.785,11.483
		c0,0,0,0,0,0.002c-0.238-0.104-0.474-0.213-0.714-0.311c0.501-1.807,1.035-3.603,1.147-5.481c0.402,0.164,0.793,0.336,1.187,0.508
		C24.571,7.865,24.295,9.705,23.785,11.483z M27.207,7.059c0.007-0.014,0.005-0.023,0.011-0.037
		c0.193,0.092,0.373,0.185,0.563,0.279c-0.653,0.834-1.213,1.801-1.594,2.822C26.437,9.068,26.706,8.02,27.207,7.059z M27.491,13.36
		c0.104-0.15,0.182-0.326,0.179-0.559c-0.018-1.621,0.878-3.371,1.932-4.578c0.243,0.129,0.477,0.26,0.716,0.389
		c-0.988,1.572-1.824,3.291-2.252,5.106C27.873,13.6,27.687,13.473,27.491,13.36z M30.707,15.524
		c-0.277-0.211-0.556-0.422-0.842-0.625c0.335-1.893,1.153-3.641,2.168-5.264c0.358,0.234,0.717,0.494,1.074,0.756
		C32.22,12.065,31.078,13.66,30.707,15.524z M45.391,25.371c-0.329,0.059-0.626,0.268-0.731,0.693
		c-0.269,1.082-1.332,1.904-1.879,2.865c-0.056,0.098-0.103,0.201-0.155,0.301c0.28-0.869,0.691-1.701,1.095-2.516
		c0.368-0.744,0.872-1.404,1.261-2.125C45.122,24.85,45.255,25.11,45.391,25.371z M33.598,18.108
		c0.686-1.646,1.495-3.24,2.192-4.883c0.086-0.203,0.088-0.395,0.058-0.576c0.196,0.182,0.39,0.375,0.585,0.563
		c-0.186,0.074-0.356,0.205-0.47,0.447c-0.728,1.557-1.609,3.014-2.191,4.621C33.715,18.221,33.655,18.166,33.598,18.108z
		 M35.473,19.822c-0.047,0.008-0.094,0.008-0.14,0.021c0.019-0.035,0.042-0.064,0.054-0.109c0.479-1.834,1.524-3.393,2.319-5.094
		c0.02-0.041,0.016-0.08,0.029-0.119c0.366,0.387,0.727,0.785,1.085,1.191c-0.054,0.039-0.11,0.061-0.161,0.115
		c-0.604,0.648-0.893,1.541-1.441,2.246C36.715,18.723,36.134,19.33,35.473,19.822z M37.563,23.041
		c-0.348-0.504-0.692-1.008-1.063-1.496c0.738-0.531,1.39-1.168,1.98-1.863c0.339-0.4,0.647-0.83,0.938-1.264
		c0.248-0.369,0.373-0.867,0.672-1.191c0.04,0.049,0.077,0.104,0.117,0.152c-0.347,0.844-0.953,1.535-1.281,2.389
		C38.498,20.887,38.069,21.955,37.563,23.041z M40.496,21.32c0.263-0.791,0.693-1.457,1.073-2.162
		c0.266,0.365,0.518,0.742,0.774,1.115c-0.06,0.066-0.123,0.125-0.17,0.219c-0.071,0.143-0.163,0.275-0.242,0.416
		c-0.382,0.568-0.775,1.131-1.173,1.689c-0.259,0.301-0.783,0.918-1.254,1.01C39.865,22.858,40.229,22.121,40.496,21.32z
		 M41.604,26.502c-0.319,0.67-0.631,1.363-0.868,2.078c-0.243-0.521-0.496-1.035-0.764-1.543c0.168-0.074,0.323-0.201,0.443-0.396
		c0.541-0.879,1.134-1.723,1.731-2.563c0.561-0.611,1.046-1.313,1.412-1.945c0.117,0.19,0.226,0.381,0.34,0.57
		c-0.211,0.109-0.394,0.289-0.489,0.57c-0.176,0.51-0.535,0.93-0.841,1.365C42.173,25.205,41.899,25.883,41.604,26.502z
		 M42.663,34.563c-0.071-0.184-0.139-0.373-0.201-0.568c0.214-0.107,0.402-0.281,0.509-0.551c0.531-1.35,1.06-2.664,1.778-3.928
		c0.471-0.826,1.155-1.426,1.574-2.244c0.232,0.506,0.445,1.012,0.652,1.516c-0.154,0.047-0.306,0.127-0.44,0.291
		c-0.756,0.924-1.504,1.85-2.208,2.813C43.728,32.709,43.055,33.61,42.663,34.563z M45.196,34.053
		c0.294-0.414,0.614-0.816,0.872-1.18c0.517-0.727,1.091-1.416,1.658-2.105c0.198,0.58,0.375,1.154,0.533,1.725
		C47.25,33.039,46.241,33.582,45.196,34.053z"/>
</g>
</svg>